<svg aria-hidden="true" style="position:absolute;width:0;height:0;overflow:hidden" xmlns="http://www.w3.org/2000/svg">
  <defs>
    <symbol id="icon-menu" viewBox="0 0 48 32">
      <path d="M0 5.334V0h48v5.334H0zm0 13.332h48v-5.332H0v5.332zM0 32h48v-5.334H0V32z"/>
    </symbol>
    <symbol id="icon-antenna" viewBox="0 0 32 32">
      <path fill="#212121" style="fill:var(--color1, #212121)" d="m30.773 22.098-8.443-8.505.937-4.616c.225.09.485.144.758.146h.033a2.16 2.16 0 1 0-2.024-1.405l-.005-.015-.005-.015-4.96.606L8.973.161a.53.53 0 0 0-.376-.16.533.533 0 0 0-.373.155L6.712 1.66a.534.534 0 0 0 0 .754l.814.825C6.383 5.301 5.71 7.761 5.71 10.378c0 4.106 1.656 7.824 4.336 10.525l-.001-.001c.041.04.09.072.143.096l.003.001a2.9 2.9 0 0 0-.052.546v6.188h-6.4a2.67 2.67 0 0 0-2.667 2.666v1.067c0 .295.239.534.534.534H26.14a.534.534 0 0 0 .533-.534v-1.067a2.67 2.67 0 0 0-2.666-2.666h-6.4v-2.742c.919.203 1.974.319 3.057.319 2.608 0 5.057-.675 7.184-1.86l-.075.038-.077.039.818.823a.53.53 0 0 0 .376.16.533.533 0 0 0 .373-.155l1.512-1.504a.534.534 0 0 0 0-.754zM23.28 6.233a1.067 1.067 0 1 1 .754 1.822h-.006a1.066 1.066 0 0 1-.747-1.822h-.002zm-1.256 3.504-.598 2.946-1.175-1.183 1.774-1.763zm-.605-.902-1.92 1.909-1.486-1.493 3.406-.416zM24.004 28.8a1.6 1.6 0 0 1 1.6 1.6v.534H2.138V30.4a1.6 1.6 0 0 1 1.6-1.6h20.267zm-7.466-2.134v1.067h-5.334v-1.067h5.334zM11.204 25.6v-4.053c0-1.294 1.196-2.346 2.667-2.346s2.667 1.053 2.667 2.346V25.6h-5.334zm6.4-1.696v-2.357c0-1.882-1.675-3.413-3.733-3.413h-.058c-1.353 0-2.54.707-3.213 1.771l-.009.016a13.764 13.764 0 0 1-3.812-9.529v-.022.001c0-2.314.567-4.496 1.569-6.414l-.036.077 18.602 18.709c-1.823.947-3.979 1.502-6.266 1.502-1.079 0-2.128-.124-3.136-.357l.093.018zm11.289-.684L7.836 2.039l.754-.752 7.935 7.98c.004 0 .006.007.01.01l13.114 13.191-.757.752z"/>
      <path fill="#2196f3" style="fill:var(--color2, #2196f3)" d="M13.876 20.267H13.867a1.6 1.6 0 0 0-.002 3.2h.008a1.6 1.6 0 0 0 .001-3.2zm.373 1.978a.535.535 0 1 1-.378-.912.532.532 0 0 1 .374.911h.005z"/>
    </symbol>
    <symbol id="icon-astronaut" viewBox="0 0 32 32">
      <path fill="#2196f3" style="fill:var(--color2, #2196f3)" d="M31.974 4.524a.539.539 0 0 0-.424-.362h-.006l-1.911-.278-.855-1.731c-.179-.365-.777-.365-.956 0l-.855 1.731-1.911.278a.534.534 0 0 0-.296.91l1.383 1.348-.326 1.903a.534.534 0 0 0 .524.624.525.525 0 0 0 .253-.064l-.003.001 1.709-.899 1.709.899a.534.534 0 0 0 .773-.569v.006l-.326-1.903 1.383-1.348a.535.535 0 0 0 .133-.553l.001.004.001.004zm-2.463 1.327a.528.528 0 0 0-.153.475v-.003l.191 1.114-1-.526a.515.515 0 0 0-.504.003l.003-.001.003-.001-1 .526.191-1.114a.534.534 0 0 0-.152-.471l-.811-.79 1.119-.162a.537.537 0 0 0 .401-.289l.001-.003.5-1.013.5 1.013a.535.535 0 0 0 .399.292h.003l1.119.162-.809.79zm-3.377 14.671h-1.067v1.067h1.067v-1.067zm0 2.134h-1.067v1.066h1.067v-1.066zm1.066-1.067h-1.067v1.067H27.2v-1.067zm-2.133 0H24v1.067h1.067v-1.067zm-2.667 4.8h-1.067v1.067H22.4v-1.067zm0 2.134h-1.067v1.067H22.4v-1.067zm1.067-1.067H22.4v1.067h1.067v-1.067zm-2.133 0h-1.067v1.067h1.067v-1.067zM16 24.256h-1.066v1.067H16v-1.067zm0 2.133h-1.066v1.067H16v-1.067zm1.067-1.067H16v1.067h1.067v-1.067zm-2.133 0h-1.067v1.067h1.067v-1.067zm-9.067-19.2H4.801v1.066h1.066V6.122zm0 2.134H4.801v1.066h1.066V8.256zm1.066-1.067H5.866v1.067h1.066V7.189zm-2.133 0H3.733v1.067H4.8V7.189z"/>
      <path fill="#212121" style="fill:var(--color1, #212121)" d="M24.715 14.16a1.774 1.774 0 0 0-1.169-.702l-.01-.001-.009-.001a1.759 1.759 0 0 0-1.348.358l.004-.003.004-.003-1.253.96-1.898 1.417-1.358-.541c2.421-1.086 4.113-3.508 4.113-6.32 0-3.823-3.122-6.934-6.961-6.934S7.869 5.5 7.869 9.324c0 1.386.415 2.674 1.12 3.759l-2.768-.024c-.009 0-.016.005-.023.005a.53.53 0 0 0-.162.034l.003-.001.004-.001c-.013.005-.026.007-.038.013-.006.003-.013.003-.019.006l-3.234 1.597-1.893.91a.593.593 0 0 0-.067.037l.002-.001.001-.001a1.783 1.783 0 0 0-.589 2.316l-.005-.01-.005-.01c.22.424.592.742 1.043.885l.013.003a1.763 1.763 0 0 0 1.397-.137l-.009.005-.009.005 1.388-.738 2.264-1.169 1.357-.008-6.782 6.749a1.638 1.638 0 0 0-.491 1.171v.007a1.668 1.668 0 0 0 1.667 1.664h.005c.459 0 .875-.185 1.177-.485l1.314-1.309 1.741-1.3.901.897-3.102 3.088a1.638 1.638 0 0 0-.491 1.171v.008c0 .918.744 1.662 1.662 1.662h.01c.459 0 .875-.185 1.177-.485l4.488-4.472c.007-.006.016-.009.022-.016l5.166-5.658 3.471.494a.477.477 0 0 0 .265-.033l-.003.001c.017-.006.032-.015.049-.023.019-.01.039-.015.058-.027l3.213-2.133c.012-.008.018-.021.029-.03.013-.01.029-.014.041-.026l1.271-1.191c.348-.326.564-.787.564-1.3 0-.4-.132-.769-.355-1.066l.003.005zM2.13 17.77a.694.694 0 0 1-.569.049l.005.002.005.001a.718.718 0 0 1-.217-1.257l.002-.001.002-.001 1.314-.632.449 1.313-.992.527zm3.497-1.828-1.548.8-.255-.746-.184-.537 2.027-1.001-.04 1.484zm15.1-6.62c0 .918-.219 1.785-.599 2.56l-4.181-1.899a1.867 1.867 0 0 0-.776-1.38l-.006-.004-.006-.004 1.464-4.861c2.377.757 4.104 2.975 4.104 5.588zm-11.789 0c0-3.235 2.644-5.867 5.894-5.867.253 0 .5.022.745.053l-1.432 4.753c-.019 0-.037-.006-.057-.006h-.001a1.872 1.872 0 0 0-1.872 1.867 1.873 1.873 0 0 0 1.872 1.867h.001c.695 0 1.295-.383 1.618-.944l3.863 1.755a5.888 5.888 0 0 1-4.737 2.39c-3.25 0-5.894-2.632-5.894-5.867zm5.957.8c0 .441-.362.8-.806.8h-.001a.804.804 0 0 1-.804-.8c0-.441.361-.8.806-.8s.806.359.806.8zM2.464 25.146a.606.606 0 0 1-.855.001.59.59 0 0 1 0-.844l.962-.959.852.848-.959.954zm3.214 3.734a.606.606 0 0 1-.855.001.59.59 0 0 1 0-.844l.963-.959.852.848-.96.955zm3.482-3.469-.001.001-1.765 1.76-.852-.848 1.765-1.757a.525.525 0 0 0 .089-.133l.001-.003c.007-.014.02-.026.026-.04.016-.041.019-.085.026-.128.003-.025.014-.048.014-.073 0-.035-.013-.07-.02-.105-.006-.032-.006-.064-.019-.096a.563.563 0 0 0-.092-.138c-.01-.012-.014-.026-.025-.038h-.001l-.001-.002-1.607-1.6c-.017-.017-.039-.024-.058-.038a.576.576 0 0 0-.081-.055l-.003-.001-.003-.001a.481.481 0 0 0-.086-.03l-.004-.001-.003-.001a.559.559 0 0 0-.099-.02H6.334a.653.653 0 0 0-.078.005h.006c-.036.005-.069.009-.104.021s-.064.027-.094.045c-.02.011-.043.015-.061.029l-1.774 1.324-.901-.897 2.399-2.386 4.36 4.289-.928.919zm6.819-7.017c-.016-.002-.03.004-.046.003l-.027-.001a.494.494 0 0 0-.095.009h.006a.495.495 0 0 0-.189.071l.002-.001.002-.001a.481.481 0 0 0-.083.061c-.013.011-.028.016-.04.029l-4.698 5.146-4.328-4.256 2.833-2.818a.535.535 0 0 0-.378-.911h-.002l-2.219.013.028-1.607 3.104.027a6.906 6.906 0 0 0 4.97 2.101h.012c.438 0 .864-.046 1.28-.122.04.032.08.064.129.085l2.41.96.152.758.178.886-3.003-.427zm4.041.178-.313-1.558 1.446-1.08.946 1.257-2.08 1.381zm3.753-2.831-.837.785-.931-1.236.831-.637a.734.734 0 0 1 .547-.143h-.004c.352.049.62.348.621.71v.002a.708.708 0 0 1-.226.519z"/>
      <path fill="#212121" style="fill:var(--color1, #212121)" d="m13.602 18.544-2.143-2.134a.53.53 0 0 0-.752 0l-2.143 2.133a.535.535 0 0 0 0 .756l2.142 2.134a.53.53 0 0 0 .752 0l2.143-2.134a.531.531 0 0 0 0-.756zm-2.519 1.759-1.387-1.381 1.386-1.381 1.387 1.381-1.387 1.381zm6.081-15.232-.258 1.036c.071.018 1.738.452 1.738 2.149h1.067c0-2.017-1.666-2.965-2.547-3.184zm2.547 4.251h-1.067v1.066h1.067V9.322z"/>
    </symbol>
    <symbol id="icon-clock" viewBox="0 0 32 32">
      <path fill="#212121" style="fill:var(--color1, #212121)" d="M31.296 15.301C31.295 6.849 24.441-.002 15.988 0S.685 6.855.687 15.308c.002 6.788 4.422 12.543 10.541 14.545l.108.031a.662.662 0 0 0 .532-.066l-.003.002a.64.64 0 0 0 .282-.352l.001-.005 3.865-12.25a1.912 1.912 0 1 0-.864-3.625l.022-.01-5.106-5.107a.638.638 0 0 0-.902.902l5.103 5.109c-.12.239-.191.52-.191.818v.008c0 .602.283 1.137.723 1.48l.004.003-3.682 11.673C3.842 25.783.116 17.71 2.796 10.432S13.55-.572 20.828 2.109c7.278 2.681 11.004 10.754 8.323 18.032-1.345 3.581-4.003 6.406-7.374 7.938l-.088.036-.398-1.874a.64.64 0 0 0-1.051-.342l.001-.001.001-.001-3.837 3.426a.635.635 0 0 0 .222 1.082l.005.001.005.001 4.899 1.563a.637.637 0 0 0 .817-.748l.001.004.001.004-.391-1.839c5.528-2.374 9.329-7.772 9.329-14.057v-.032zm-15.304-.637a.638.638 0 0 1 0 1.276.638.638 0 0 1 0-1.276zm2.1 14.864 2.184-1.948.603 2.84-2.787-.892z"/>
      <path fill="#2196f3" style="fill:var(--color2, #2196f3)" d="M15.354 3.185V4.46a.638.638 0 0 0 1.276 0V3.185a.638.638 0 0 0-1.276 0zM3.876 14.664a.638.638 0 0 0 0 1.276h1.275a.638.638 0 0 0 0-1.276H3.876zm24.232 1.275a.638.638 0 0 0 0-1.276h-1.275a.638.638 0 0 0 0 1.276h1.275z"/>
    </symbol>
    <symbol id="icon-close-black" viewBox="0 0 32 32">
      <path d="m26.667 7.303-1.97-1.97-7.808 7.808-7.808-7.808-1.97 1.97 7.808 7.808-7.808 7.808 1.97 1.97 7.808-7.808 7.808 7.808 1.97-1.97-7.808-7.808 7.808-7.808z"/>
    </symbol>
    <symbol id="icon-diagram" viewBox="0 0 32 32">
      <path fill="#2196f3" style="fill:var(--color2, #2196f3)" d="M14.926 14.965h1.066v4.798h-1.066v-4.798zm4.264 2.132h1.066v2.665H19.19v-2.665zm-8.529 1.599h1.066v1.066h-1.066v-1.066zm-3.198-.533h1.066v1.599H7.463v-1.599z"/>
      <path fill="#212121" style="fill:var(--color1, #212121)" d="M1.599 28.291h25.586a1.6 1.6 0 0 0 1.599-1.599V24.56a1.6 1.6 0 0 0-1.599-1.599h-.533V9.667l3.028-2.868a1.608 1.608 0 1 0-.738-.743l-.004-.01-.004-.01-2.281 2.162v-1.23a1.6 1.6 0 0 0-1.599-1.599H3.731a1.6 1.6 0 0 0-1.599 1.599V22.96h-.533A1.6 1.6 0 0 0 0 24.559v2.132a1.6 1.6 0 0 0 1.599 1.599zM30.384 4.837a.533.533 0 0 1 0 1.066.533.533 0 0 1 0-1.066zM3.198 6.969c0-.294.239-.533.533-.533h21.323c.294 0 .533.239.533.533v2.239l-1.066 1.013V8.036a.534.534 0 0 0-.534-.534H4.798a.534.534 0 0 0-.534.533v13.327c0 .294.239.533.534.533h19.189a.534.534 0 0 0 .534-.533v-9.675l1.066-1.01V22.96H3.198V6.969zm4.798 6.93h-.008a1.6 1.6 0 1 0 1.115 2.748l1.853.93a.533.533 0 0 0 .636-.121l3.939-4.432 3.872 2.902a.532.532 0 0 0 .686-.04l3.365-3.188v8.131H5.331V8.568h18.123v2.661l-3.771 3.572-3.904-2.927a.53.53 0 0 0-.717.07v.002l-3.993 4.493-1.493-.746c.011-.064.017-.128.02-.193a1.6 1.6 0 0 0-1.599-1.599zm.533 1.599a.533.533 0 0 1-1.066 0 .533.533 0 0 1 1.066 0zm3.198 8.528h5.33v.533a.533.533 0 0 1-.533.533h-4.265a.533.533 0 0 1-.533-.533v-.533zm-10.66.534c0-.294.238-.533.533-.533h9.062v.533a1.6 1.6 0 0 0 1.599 1.599h4.265a1.6 1.6 0 0 0 1.599-1.599v-.533h9.062c.294 0 .533.239.533.533v2.132a.533.533 0 0 1-.533.533H1.601a.533.533 0 0 1-.533-.533V24.56z"/>
    </symbol>
    <symbol id="icon-envelope" viewBox="0 0 43 32">
      <path d="M38.667 0H4C1.795 0 0 1.795 0 4v24c0 2.205 1.795 4 4 4h34.667c2.205 0 4-1.795 4-4V4c0-2.205-1.795-4-4-4zm0 2.667c.181 0 .355.037.512.104L21.334 18.238 3.489 2.771c.151-.065.327-.104.512-.104h34.667zm0 26.666H4A1.333 1.333 0 0 1 2.667 28V5.587l17.792 15.421c.233.203.539.327.875.327s.642-.124.876-.328l-.002.001L40 5.587V28c0 .736-.597 1.333-1.333 1.333z"/>
    </symbol>
    <symbol id="icon-facebook" viewBox="0 0 32 32">
      <path d="M21.328 5.312h2.923V.224A35.256 35.256 0 0 0 20.214 0H19.995c-4.213 0-7.099 2.65-7.099 7.52V12H8.25v5.688h4.646V32h5.699V17.69h4.459l.707-5.688h-5.168V8.08c0-1.643.443-2.768 2.734-2.768z"/>
    </symbol>
    <symbol id="icon-send" viewBox="0 0 32 32">
      <path fill="#fff" style="fill:var(--color5, #fff)" d="M32 0 0 18l10.227 3.787L26 7 14.003 23.187l.009.003-.012-.003V32l5.735-6.691L27.002 28l4.999-28z"/>
    </symbol>
    <symbol id="icon-instagram" viewBox="0 0 32 32">
      <path d="M31.968 9.408c-.074-1.701-.349-2.869-.742-3.882a7.867 7.867 0 0 0-1.849-2.836l-.001-.001-.001-.001A7.914 7.914 0 0 0 26.65.88l-.053-.019-.054-.018C25.524.449 24.362.176 22.661.101 20.949.019 20.405 0 16.059 0c-4.344 0-4.888.019-6.595.094-1.699.074-2.869.349-3.88.742a7.884 7.884 0 0 0-2.838 1.849l-.001.001-.001.001A7.909 7.909 0 0 0 .938 5.412l-.019.053-.018.054C.506 6.538.232 7.7.157 9.401c-.082 1.712-.101 2.256-.101 6.602 0 4.344.019 4.888.094 6.595.075 1.701.35 2.869.744 3.882a7.948 7.948 0 0 0 1.848 2.836l.001.001.001.001c.8.813 1.77 1.443 2.832 1.843 1.019.395 2.182.67 3.882.744 1.707.075 2.251.094 6.595.094 4.346 0 4.89-.019 6.595-.094 1.701-.074 2.869-.349 3.882-.742a8.288 8.288 0 0 0 4.644-4.573l.02-.055.019-.055c.394-1.019.669-2.182.744-3.882.075-1.707.093-2.251.093-6.595s-.006-4.888-.08-6.595zm-2.88 13.066c-.07 1.563-.333 2.406-.55 2.97a5.371 5.371 0 0 1-2.968 3.011l-.036.013-.036.012c-.56.219-1.411.482-2.968.55-1.688.075-2.194.094-6.464.094-4.269 0-4.782-.019-6.464-.094-1.563-.069-2.406-.331-2.97-.55a4.98 4.98 0 0 1-1.835-1.191l-.001-.001-.001-.001a4.973 4.973 0 0 1-1.172-1.769l-.012-.034-.011-.034c-.218-.563-.48-1.413-.549-2.97-.075-1.688-.094-2.195-.094-6.464 0-4.27.019-4.784.094-6.464.069-1.563.331-2.406.549-2.97a4.919 4.919 0 0 1 1.197-1.836l.001-.001.002-.002a4.967 4.967 0 0 1 1.772-1.17l.034-.012.034-.011c.56-.219 1.411-.48 2.968-.55 1.688-.074 2.195-.093 6.464-.093 4.275 0 4.782.019 6.464.093 1.563.069 2.406.331 2.97.55a4.935 4.935 0 0 1 1.836 1.193l.001.001c.531.52.938 1.144 1.195 1.84.218.56.48 1.411.549 2.968.075 1.688.094 2.194.094 6.464 0 4.269-.019 4.768-.094 6.458z"/>
      <path d="M16.059 7.782a8.223 8.223 0 0 0-8.219 8.221 8.224 8.224 0 0 0 16.442.018v-.019a8.223 8.223 0 0 0-8.221-8.221zm0 13.552a5.333 5.333 0 0 1 .001-10.666h.002a5.334 5.334 0 1 1 0 10.668zM26.525 7.458a1.92 1.92 0 0 1-3.84 0 1.92 1.92 0 0 1 3.84 0z"/>
    </symbol>
    <symbol id="icon-linkedin" viewBox="0 0 32 32">
      <path d="M31.992 32H32V20.262c0-5.741-1.237-10.163-7.947-10.163-3.227 0-5.392 1.77-6.277 3.45h-.093v-2.914h-6.365v21.363h6.627V21.42c0-2.786.528-5.48 3.978-5.48 3.398 0 3.448 3.179 3.448 5.658V32h6.621zM.528 10.635h6.635V32H.528V10.635zM3.843 0A3.844 3.844 0 0 0 0 3.843c0 2.12 1.722 3.878 3.843 3.878 2.12 0 3.842-1.757 3.842-3.878S5.965.002 3.844 0z"/>
    </symbol>
    <symbol id="icon-logo-brand" viewBox="0 0 57 32">
      <path d="M14.27 23.859a.766.766 0 0 1 .198.515l-.001.047v-.002.002a.757.757 0 0 1-.075.329l.002-.005.002-.005a.841.841 0 0 1-.23.295l-.002.001-.002.001a1.382 1.382 0 0 1-.89.24h.005-1.545v-3.301h1.517a1.374 1.374 0 0 1 .852.225l-.005-.003-.005-.003a.788.788 0 0 1 .225.272l.002.005a.705.705 0 0 1 .069.305l-.001.038v-.002l.001.032a.722.722 0 0 1-.177.474l.001-.001a.838.838 0 0 1-.457.257l-.005.001c.209.034.39.136.522.282l.001.001zm-1.816-.498h.649a.65.65 0 0 0 .414-.111l-.002.001a.376.376 0 0 0 .108-.142l.001-.002.001-.003a.352.352 0 0 0 .03-.143v-.002l-.001-.033v.001l.001-.028a.37.37 0 0 0-.032-.152l.001.002.001.002a.408.408 0 0 0-.107-.147h-.002a.658.658 0 0 0-.371-.113h-.002l-.054.002h-.636v.867zm1.124 1.266a.4.4 0 0 0 .117-.147l.001-.002.001-.003a.371.371 0 0 0 .034-.155v-.003l-.001-.027v.001l.001-.024v-.001a.385.385 0 0 0-.038-.166l.001.002.001.002a.414.414 0 0 0-.12-.15l-.001-.001-.001-.001a.699.699 0 0 0-.395-.121h-.002l-.045.001h-.678v.908h.689a.72.72 0 0 0 .438-.117l-.003.002zm3.793.651-.843-1.291h-.317v1.291h-.726v-3.302h1.374a1.424 1.424 0 0 1 .963.287l-.004-.003-.004-.003c.199.183.325.444.329.734v.002a.988.988 0 0 1-.229.634l.001-.002.001-.002a1.146 1.146 0 0 1-.642.334l-.007.001-.006.001.899 1.319h-.789zm-1.161-1.74h.594c.412 0 .619-.166.619-.5l.001-.027a.461.461 0 0 0-.036-.179l.001.003.001.003a.494.494 0 0 0-.118-.171.674.674 0 0 0-.473-.133h.003-.598l.007 1.005zm5.129 1.075h-1.446l-.255.665h-.761l1.328-3.265h.823l1.323 3.265h-.761l-.25-.665zm-.194-.499-.529-1.394-.529 1.394h1.057zm5.16 1.164h-.72l-1.616-2.245v2.245h-.719v-3.302h.719l1.616 2.259v-2.259h.72v3.302zm4.113-.79a1.508 1.508 0 0 1-.643.578l-.009.004c-.28.132-.608.209-.955.209l-.059-.001H27.47v-3.302l1.343-.001c.345 0 .673.075.968.209l-.015-.006c.276.128.503.329.652.576a1.773 1.773 0 0 1-.005 1.741l.005-.009zm-.825-.079c.196-.205.317-.482.318-.788 0-.289-.113-.569-.318-.788a1.308 1.308 0 0 0-.91-.281h.004-.496v2.138h.5a1.316 1.316 0 0 0 .908-.284l-.003.002-.003.002zm-7.803-20.8s9.3 3.215 9.103 7.867v7.869s-9.294-3.216-9.1-7.869l-.003-7.867zm17.389 13.894a13.323 13.323 0 0 1 5.855-1.99l.054-.004v-2.464c-2.444.863-4.517 2.427-5.909 4.458z"/>
      <path d="M38.124 18.245c1.437-2.651 3.93-4.696 6.964-5.716V5.431s-13.245 4.58-12.965 11.205v11.203s.59-.205 1.519-.589c0-.358 0-.719.043-1.083.274-3.075 1.87-5.925 4.439-7.924z"/>
      <path d="M36.864 22.407c.069-.777.225-1.546.463-2.294-1.599 1.725-2.568 3.867-2.769 6.122-.02.213-.03.426-.036.645a35.167 35.167 0 0 0 2.954-1.43l-.193.096-.214.105a10.374 10.374 0 0 1-.249-2.287c0-.337.016-.67.046-.999l-.003.042zm.527.04a10.246 10.246 0 0 0 .187 3.07l-.012-.067-.012-.066c3.619-1.983 7.685-5.046 7.528-8.748v-.323c-2.586.265-5.004 1.3-6.885 2.946-.414.92-.7 1.988-.801 3.109l-.003.039-.003.04z"/>
    </symbol>
    <symbol id="icon-logo-company" viewBox="0 0 57 32">
      <path d="M19.417 26.187c.018 0 .034.007.046.018l.116.111a.98.98 0 0 1-.32.209l-.007.002a1.236 1.236 0 0 1-.43.076h-.06c-.147 0-.288-.026-.418-.074l.008.003a.95.95 0 0 1-.331-.201l.001.001.001.001a.918.918 0 0 1-.208-.296l-.002-.006-.002-.006a1.006 1.006 0 0 1-.075-.383v-.033c0-.272.118-.516.305-.684l.001-.001c.098-.086.214-.154.342-.199l.007-.002c.143-.048.296-.072.45-.07h.028c.139 0 .273.024.398.067l-.009-.003c.115.044.221.104.313.179l-.098.118a.12.12 0 0 1-.024.021.06.06 0 0 1-.033.009h-.007a.107.107 0 0 1-.044-.012h.001L19.314 25l-.073-.041a.798.798 0 0 0-.22-.069l-.005-.001-.005-.001a1 1 0 0 0-.161-.013h-.023a.955.955 0 0 0-.326.057l.007-.002.007-.002a.725.725 0 0 0-.255.151l.001-.001.001-.001a.666.666 0 0 0-.162.233l-.002.004a.766.766 0 0 0-.059.296V25.639c0 .11.022.215.061.311l-.002-.005a.673.673 0 0 0 .399.382l.005.001c.088.032.19.051.296.051h.003c.059.001.119-.003.178-.01a.693.693 0 0 0 .386-.165l-.001.001-.001.001a.088.088 0 0 1 .055-.02zm3.358-.558V25.642c0 .14-.03.272-.083.392l.002-.006.002-.006a.87.87 0 0 1-.217.303l-.001.001-.001.001a1.018 1.018 0 0 1-.33.196l-.007.002-.007.002a1.402 1.402 0 0 1-.904-.006l.02.006a1.023 1.023 0 0 1-.343-.203l.001.001.001.001a.897.897 0 0 1-.217-.297l-.002-.006-.002-.006a1.022 1.022 0 0 1 .006-.8l-.003.007-.003.007a.935.935 0 0 1 .22-.308l.001-.001c.097-.085.213-.15.341-.194a1.378 1.378 0 0 1 .904.006l-.01-.003-.01-.003c.129.045.246.114.343.201a.9.9 0 0 1 .299.671l-.001.032v-.002zm-.305 0v-.021a.804.804 0 0 0-.06-.307l.002.005.002.006a.663.663 0 0 0-.391-.383l-.005-.001-.005-.001a1.033 1.033 0 0 0-.657.004l.007-.002.007-.002a.682.682 0 0 0-.246.15.642.642 0 0 0-.155.228l-.001.004-.001.004a.92.92 0 0 0 .005.644l-.002-.006-.002-.006a.658.658 0 0 0 .394.382l.005.001.005.001c.207.068.435.068.643 0a.65.65 0 0 0 .399-.38l.002-.005a.803.803 0 0 0 .055-.295v-.022.001zm2.597.331.031.07c.011-.025.021-.048.033-.07a.746.746 0 0 1 .041-.076l-.002.004-.002.003.743-1.174c.015-.02.028-.033.043-.037s.033-.007.051-.007h.23v1.909h-.26v-1.463l-.001-.033.001-.035v.002l-.748 1.19a.116.116 0 0 1-.042.043h-.002a.13.13 0 0 1-.062.016h-.046a.138.138 0 0 1-.064-.016h.002a.116.116 0 0 1-.043-.042v-.002l-.77-1.198v1.532h-.251v-1.905h.229c.018 0 .036.002.052.007h-.001a.092.092 0 0 1 .041.037l.759 1.175c.014.02.026.042.037.066l.001.003zm2.796-.095v.715h-.29v-1.906h.649c.123-.002.244.012.362.042a.72.72 0 0 1 .258.12l-.002-.001c.061.049.11.11.143.181l.001.003.001.003c.032.069.05.15.05.235V25.278a.529.529 0 0 1-.208.421l-.001.001-.001.001a.74.74 0 0 1-.253.125l-.005.001a1.178 1.178 0 0 1-.323.044h-.028l-.351-.005zm0-.205h.362a.856.856 0 0 0 .222-.03l-.006.001a.486.486 0 0 0 .165-.084l-.001.001-.001.001a.366.366 0 0 0 .133-.282v-.005l.001-.021a.322.322 0 0 0-.031-.139l.001.002.001.002a.38.38 0 0 0-.1-.13h-.001l-.001-.001a.618.618 0 0 0-.344-.104h-.001l-.048.002h-.35v.786zm3.909.922h-.233a.111.111 0 0 1-.06-.018.12.12 0 0 1-.038-.043v-.002l-.197-.461h-.994l-.205.461a.11.11 0 0 1-.099.062h-.233l.873-1.909h.302l.884 1.909zm-1.44-.708h.82l-.346-.777a1.32 1.32 0 0 1-.064-.17l-.002-.009-.034.1a.557.557 0 0 1-.034.085l.002-.004-.343.775zm2.697-1.191a.12.12 0 0 1 .043.034l1.273 1.439v-1.482h.26v1.909h-.149a.13.13 0 0 1-.056-.012h.002a.165.165 0 0 1-.047-.035l-1.27-1.438.001.033-.001.034v-.002 1.419h-.26v-1.909h.155a.15.15 0 0 1 .052.009h-.001zm3.719 1.14v.758h-.291v-.757l-.804-1.15h.266c.021 0 .04.006.056.016a.195.195 0 0 1 .039.042v.001l.503.742c.031.048.061.104.086.163l.003.007.037-.082a.673.673 0 0 1 .051-.089l-.001.002.496-.747a.234.234 0 0 1 .037-.04.093.093 0 0 1 .057-.019h.269l-.805 1.155zM24.923 21.47c.126.014.254.025.384.035 1.962-.763 3.622-2.011 4.772-3.588s1.739-3.415 1.694-5.282l-2.162-1.878c.439 1.988.234 4.043-.594 5.935s-2.245 3.547-4.094 4.779z"/>
      <path d="m24.151 21.382.058.011c1.975-1.228 3.481-2.942 4.323-4.922s.981-4.133.4-6.181l-3.08-2.676c1.245 2.199 1.747 4.661 1.445 7.099-.301 2.437-1.392 4.75-3.147 6.669zm10.445-6.541c-.523 2.052-1.794 3.902-3.623 5.276-.5.38-1.064.737-1.658 1.043l-.065.03c1.49-.38 2.859-1.053 4.003-1.966s2.03-2.042 2.592-3.3l-1.249-1.084z"/>
      <path d="m34.106 14.539-1.778-1.545c-.034 1.762-.611 3.483-1.669 4.986s-2.562 2.732-4.352 3.559h.009c.399 0 .797-.021 1.194-.062 1.673-.594 3.151-1.538 4.302-2.748s1.94-2.65 2.295-4.189zm-9.697-8.054L22.287 4.64c-1.897.637-3.527 1.756-4.68 3.212s-1.772 3.179-1.778 4.946c.007 1.952.763 3.846 2.149 5.383 1.385 1.536 3.321 2.628 5.501 3.101 1.946-2.06 3.085-4.605 3.252-7.266s-.647-5.299-2.323-7.531zm14.599 7.769c-.007-2.316-1.07-4.535-2.955-6.173s-4.439-2.561-7.105-2.567h-.033c-1.306 0-2.56.222-3.727.63l.158-.048 12.989 11.286a7.427 7.427 0 0 0 .672-3.111v-.018.001z"/>
    </symbol>
    <symbol id="icon-logo-foster" viewBox="0 0 57 32">
      <path d="M12.878 11.255h-.002c-1.279 0-2.316.921-2.316 2.058v.002c0 1.137 1.037 2.058 2.316 2.058h.002c1.279 0 2.316-.922 2.316-2.058v-.001c0-1.137-1.037-2.059-2.316-2.059zm17.093-.658c-.004-1.579-.711-3.092-1.967-4.209s-2.958-1.745-4.734-1.749c-1.777.003-3.481.631-4.737 1.748s-1.964 2.63-1.968 4.209v8.706s13.405-1.327 13.406-8.704v-.002zM5.867 22.16c.003 1.099.496 2.151 1.37 2.928s2.058 1.214 3.294 1.218c1.236-.003 2.42-.441 3.294-1.218s1.366-1.829 1.37-2.927v-6.058s-9.327.924-9.327 6.057zm4.663 1.085c-.242 0-.477-.063-.678-.183a1.148 1.148 0 0 1-.444-.473l-.003-.007-.003-.007a.943.943 0 0 1-.067-.641l-.001.007-.001.007c.047-.211.163-.404.334-.556s.388-.255.625-.297a1.359 1.359 0 0 1 .724.067l-.018-.006c.223.082.414.221.548.4s.206.388.206.603v.006a.956.956 0 0 1-.095.417l.002-.006a1.099 1.099 0 0 1-.262.351l-.001.001-.001.001c-.23.198-.532.319-.862.319h-.004v-.004zm9.426-.598h-.9v.93h-.469v-2.276h1.482v.38h-1.013v.588h.9v.378zm2.253-.156c0 .224-.039.42-.118.589a.896.896 0 0 1-.816.529h-.048a.937.937 0 0 1-.492-.139l.004.002a.926.926 0 0 1-.339-.377l-.002-.005-.002-.006a1.293 1.293 0 0 1-.123-.556v-.137c0-.224.04-.421.12-.591a.905.905 0 0 1 .338-.39l.004-.002c.148-.092.316-.138.506-.138s.357.046.505.138a.9.9 0 0 1 .34.386l.002.006c.081.17.122.366.122.589v.101zm-.475-.103c0-.238-.043-.42-.128-.544a.417.417 0 0 0-.347-.186h-.037a.417.417 0 0 0-.345.182l-.001.001-.001.001c-.085.122-.129.301-.13.538v.111c0 .232.043.412.128.54s.208.192.369.192h.018a.412.412 0 0 0 .342-.182l.001-.001.001-.001c.084-.124.127-.304.128-.541v-.111zm1.995.592v-.013a.24.24 0 0 0-.092-.189h-.002a1.163 1.163 0 0 0-.33-.148l-.008-.002c-.15-.047-.278-.1-.399-.163l.014.006c-.259-.14-.388-.328-.388-.564 0-.123.034-.233.103-.328a.694.694 0 0 1 .294-.225l.005-.002c.124-.051.269-.081.42-.081h.017-.001c.163 0 .307.029.435.089.122.054.223.14.293.247l.002.003c.067.1.107.224.107.356v.009h-.469c0-.104-.032-.185-.098-.242a.396.396 0 0 0-.25-.088l-.027.001h.001l-.026-.001a.42.42 0 0 0-.242.076l.001-.001a.228.228 0 0 0-.096.185v.006c0 .074.037.136.111.186s.185.097.33.14c.267.08.461.18.583.299s.183.267.183.444c0 .197-.075.352-.224.464s-.349.167-.601.167c-.175 0-.334-.032-.478-.096a.767.767 0 0 1-.326-.259l-.002-.002-.002-.002a.666.666 0 0 1-.112-.371v-.016h.47c0 .251.15.377.45.377l.026.001a.438.438 0 0 0 .237-.069l-.002.001a.222.222 0 0 0 .093-.181V22.984zm2.502-1.298h-.697v1.895h-.469v-1.895h-.686v-.38h1.853v.38zm1.637.909h-.9v.61h1.056v.377h-1.525v-2.276h1.522v.38h-1.053v.542h.9v.367zm1.274.153h-.373v.833H28.3v-2.276h.845c.269 0 .476.06.622.18s.219.289.219.508v.025c0 .135-.038.26-.103.367l.002-.003a.687.687 0 0 1-.296.243l-.004.002-.005.002.492.93v.021h-.503l-.427-.832zm-.373-.38h.379l.025.001a.385.385 0 0 0 .248-.09h-.001a.322.322 0 0 0 .097-.231v-.017c0-.108-.03-.192-.092-.253s-.154-.092-.28-.092h-.377v.683zm2.84.411v.802h-.469v-2.276h.887c.171 0 .321.031.45.094.13.062.23.151.3.267a.738.738 0 0 1 .105.382v.011-.001l.001.029a.655.655 0 0 1-.229.498l-.001.001c-.153.128-.363.193-.633.193h-.411zm0-.379h.419c.124 0 .219-.029.283-.087.061-.058.1-.14.1-.231l-.001-.02v.001V22.041a.372.372 0 0 0-.099-.253.367.367 0 0 0-.259-.106h-.013.001-.43v.715zm2.965.195h-.9v.61h1.056v.377h-1.525v-2.276h1.522v.38h-1.053v.542h.9v.367zm2.176-.909h-.697v1.895h-.469v-1.895h-.687v-.38h1.853v.38zm1.637.909h-.899v.61h1.056v.377h-1.525v-2.276h1.522v.38h-1.053v.542h.9v.367zm1.274.153h-.373v.833h-.469v-2.276h.846c.269 0 .476.06.622.18s.219.289.219.508v.025c0 .135-.038.26-.103.367l.002-.003a.69.69 0 0 1-.297.243l-.004.002-.005.002.492.93v.021h-.503l-.427-.832zm-.374-.38h.378c.117 0 .209-.029.273-.089a.323.323 0 0 0 .097-.231V22.026l.001-.021a.337.337 0 0 0-.093-.233c-.06-.061-.154-.092-.279-.092h-.377v.683zm2.755.616v-.013a.24.24 0 0 0-.093-.189h-.002a1.163 1.163 0 0 0-.33-.148l-.008-.002c-.15-.047-.278-.1-.399-.163l.014.006c-.259-.14-.388-.328-.388-.564 0-.123.035-.233.103-.328a.694.694 0 0 1 .294-.225l.005-.002c.124-.051.269-.081.42-.081h.017-.001c.163 0 .307.029.435.089.122.054.223.14.293.247l.002.003c.067.1.107.224.107.356v.009h-.469c0-.104-.032-.185-.098-.242a.396.396 0 0 0-.25-.088l-.027.001h.001l-.026-.001a.42.42 0 0 0-.242.076l.001-.001a.23.23 0 0 0-.096.186v.005c0 .074.037.136.111.186s.185.097.33.14c.267.08.461.18.583.299s.183.267.183.444c0 .197-.075.352-.224.464s-.349.167-.601.167c-.175 0-.334-.032-.478-.096a.767.767 0 0 1-.326-.259l-.002-.002-.002-.002a.666.666 0 0 1-.112-.371v-.016h.47c0 .251.15.377.45.377l.026.001a.438.438 0 0 0 .237-.069l-.002.001a.224.224 0 0 0 .094-.182v-.009z"/>
    </symbol>
    <symbol id="icon-logo-tag" viewBox="0 0 57 32">
      <path d="M28.493 14.618a1.554 1.554 0 0 1-.322-1.07v.01-1.538c0-.471.107-.829.321-1.075.213-.245.581-.367 1.101-.366.489 0 .837.105 1.042.313.224.266.333.591.308.919v.362h-.875v-.366l.001-.049c0-.109-.01-.216-.028-.32l.002.011a.344.344 0 0 0-.124-.211l-.001-.001-.001-.001a.492.492 0 0 0-.277-.084h-.002l-.039.001h.002l-.038-.001h-.002a.53.53 0 0 0-.297.091l.002-.001.002-.001a.413.413 0 0 0-.144.229l-.001.003v.003a1.706 1.706 0 0 0-.035.347v1.899c-.014.18.025.36.112.524.045.056.104.1.172.126l.003.001a.48.48 0 0 0 .23.029h-.004a.477.477 0 0 0 .313-.086l-.001.001-.002.001a.372.372 0 0 0 .13-.222v-.004c.02-.124.03-.249.027-.374v-.379h.875v.346a1.39 1.39 0 0 1-.307.972l.002-.003.002-.003c-.201.228-.544.342-1.047.342s-.884-.122-1.1-.375zm3.644.016c-.221-.24-.332-.588-.332-1.05v-1.618c0-.457.11-.803.332-1.037s.59-.351 1.109-.35c.515 0 .882.117 1.103.35.221.235.333.58.333 1.037v1.617c0 .457-.112.807-.337 1.049s-.59.361-1.1.361-.886-.122-1.109-.359zm1.516-.389a.893.893 0 0 0 .107-.425l-.002-.055v.002-1.981a.878.878 0 0 0-.107-.479l.002.004.002.005a.429.429 0 0 0-.173-.127l-.003-.001-.003-.001a.458.458 0 0 0-.235-.026h.004a.497.497 0 0 0-.238.029l.003-.001.003-.001a.419.419 0 0 0-.178.127l-.001.001-.001.001a.847.847 0 0 0-.105.472v-.003 1.99a.891.891 0 0 0 .107.484l-.002-.005a.602.602 0 0 0 .643.115l-.004.001-.004.001a.553.553 0 0 0 .185-.118v-.01zm2.082-3.619h.942l.708 2.984.725-2.984h.916l.093 4.307h-.678l-.073-2.994-.699 2.994h-.544l-.724-3.005-.067 3.005h-.685l.085-4.307zm4.441 0h1.468c.845 0 1.268.407 1.268 1.223 0 .781-.445 1.171-1.335 1.17h-.5v1.914h-.906l.005-4.308zm1.254 1.841a.708.708 0 0 0 .5-.137l-.002.001a.697.697 0 0 0 .131-.489v.003l.001-.05a1.33 1.33 0 0 0-.049-.359l.002.009.002.009a.31.31 0 0 0-.067-.119.379.379 0 0 0-.11-.084l-.002-.001-.002-.001a.897.897 0 0 0-.353-.071h-.004l-.048.001h-.351v1.287h.352zm2.789-1.841h.973l.998 4.307h-.845l-.197-.993h-.868l-.203.993h-.857l.998-4.307zm.831 2.816-.339-1.808-.339 1.808h.677zm1.946-2.816h.635l1.213 2.457v-2.457h.752v4.307h-.603l-1.221-2.565v2.565h-.777l.002-4.307zm4.361 2.665-1.009-2.659h.85l.616 1.708.578-1.708h.832l-.997 2.659v1.642h-.869V13.29zm-21.465 3.526v.225h-.739v1.75h-.31v-1.75H28.1v-.225h1.792zm2.318 1.976h-.247a.108.108 0 0 1-.061-.019.103.103 0 0 1-.039-.044v-.002l-.214-.469h-1.026l-.213.469a.126.126 0 0 1-.033.053.105.105 0 0 1-.061.019h-.246l.906-1.975h.315l.917 1.968zm-1.501-.734h.855l-.363-.804a1.193 1.193 0 0 1-.062-.167l-.002-.009-.003-.01-.034.105-.033.083-.358.803zm3.062.539a1.034 1.034 0 0 0 .323-.024l-.007.001a.993.993 0 0 0 .258-.088l-.006.003v-.444h-.365a.076.076 0 0 1-.046-.016c-.006-.004-.01-.01-.014-.016a.03.03 0 0 1-.004-.016v-.155h.703v.757c-.11.068-.237.123-.372.158l-.01.002c-.075.019-.15.033-.227.041a2.422 2.422 0 0 1-.25.012H33.728c-.159 0-.312-.027-.455-.077l.01.003a1.13 1.13 0 0 1-.365-.209l.002.001.002.001a.967.967 0 0 1-.229-.301l-.002-.006-.002-.006a.958.958 0 0 1-.083-.392v-.03c0-.145.03-.283.084-.407l-.003.007a.913.913 0 0 1 .233-.312l.001-.001c.103-.089.227-.158.363-.205.155-.051.32-.076.485-.074.084 0 .169.005.252.017.074.011.146.027.215.05.064.02.124.047.181.078.055.031.108.065.158.103l-.087.122a.073.073 0 0 1-.029.026.085.085 0 0 1-.042.011.108.108 0 0 1-.057-.016h.002a.984.984 0 0 1-.098-.052l.004.002.005.003a.732.732 0 0 0-.109-.05l-.006-.002-.006-.002a.88.88 0 0 0-.154-.042l-.006-.001-.007-.001a1.286 1.286 0 0 0-.213-.017h-.028c-.121 0-.238.02-.346.057l.008-.002a.787.787 0 0 0-.268.157l.001-.001a.664.664 0 0 0-.164.237l-.002.004-.002.005a.897.897 0 0 0-.061.33c0 .121.023.236.066.341l-.002-.006-.002-.006c.088.19.246.335.44.403l.005.002c.115.034.237.047.359.039zm2.888-.031h.989v.225h-1.291v-1.975h.309l-.007 1.75zm2.018.226h-.309v-1.975h.309v1.975zm1.153-1.966a.14.14 0 0 1 .047.036l1.324 1.489-.001-.035.001-.037v.002-1.472h.27v1.984h-.167a.14.14 0 0 1-.058-.012h.002a.162.162 0 0 1-.048-.037l-1.323-1.488v1.536h-.259v-1.975h.161c.018 0 .035.003.051.009zm3.923-.01v.217h-1.098v.652h.89v.21h-.89v.674h1.098v.218h-1.417v-1.971h1.417zm-32.467-12.2 13.757 3.372v11.818l-13.757-3.371V4.616zm-.882-1.008V17.01l15.52 3.806V7.417L10.404 3.61z"/>
      <path d="M18.722 27.036 3.2 23.227V9.828l15.522 3.807v13.401z"/>
      <path d="m10.661 4.465 13.578 3.33-5.774 4.987L4.886 9.45l5.776-4.986zm-.257-.856L3.2 9.828l15.522 3.808 7.202-6.22-15.52-3.807zm9.191 22.673 6.329-5.466-6.33-1.552v7.019z"/>
    </symbol>
    <symbol id="icon-logo-tagline" viewBox="0 0 57 32">
      <path d="M26.727 3.165h-.073a7.61 7.61 0 0 0-.331-.012h-.248c-.212 0-.428.005-.642.016l-.024-.001-.025.001h.001c-2.059.12-3.971.635-5.699 1.47l.09-.039-.23.111V16.52l.54-.183a16.55 16.55 0 0 1 1.356-.413l.144-.032a17.346 17.346 0 0 1 4.295-.573h.022v1.551c-.193.001-.38.006-.568.016h-.045c-1.212.068-2.348.25-3.442.537l.12-.027c-1.503.382-2.82.91-4.044 1.586l.087-.044V3.793a15.145 15.145 0 0 1 3.934-1.641l.108-.024.11-.024a15.173 15.173 0 0 1 3.908-.505h.232c.273.007.539.019.788.038.658.046 1.31.15 1.949.311v1.527a10.96 10.96 0 0 0-1.812-.28l-.037-.002-.039-.002-.039-.003c-.132-.011-.263-.022-.386-.022zm2.688 1.561c.339.026.69.038 1.044.038a16.884 16.884 0 0 0 4.349-.581l-.118.027-.117.026c1.535-.39 2.88-.934 4.129-1.631l-.086.044-.087.044v14.875a15.214 15.214 0 0 1-3.934 1.641l-.108.024-.11.024c-1.173.314-2.52.498-3.91.503h-.1c-1.02 0-2.01-.128-2.955-.368l.083.018V4.438c.229.053.466.102.706.142.394.067.81.115 1.214.145zm7.57.116-.54.181c-.496.167-.997.316-1.5.449-1.344.36-2.888.569-4.48.575h-.004c-.352 0-.676-.01-.989-.03l-.43-.028v12.148l.37.032c.342.03.696.045 1.052.045a14.425 14.425 0 0 0 3.732-.503l-.201.046a14.645 14.645 0 0 0 2.934-1.069l-.086.038-.088.039.23-.111V4.842zM19.06 24.113a.792.792 0 0 0-.572-.243l-.03.001h-.013a.895.895 0 0 0-.344.069l.006-.002.006-.002a.788.788 0 0 0-.44.439l-.002.005-.002.005a.864.864 0 0 0-.062.323v.012-.001 2.023l-.001.033c0 .138.029.27.082.388l-.002-.006c.05.107.118.197.202.27l.001.001c.077.065.17.115.272.143l.005.001c.099.027.201.042.302.042a.854.854 0 0 0 .838-.851v-.226h-.53v.192c0 .06-.011.118-.032.171l.001-.003a.315.315 0 0 1-.077.114.365.365 0 0 1-.221.077.264.264 0 0 1-.246-.107l-.001-.001-.001-.001a.47.47 0 0 1-.071-.251v-1.927c0-.103.024-.2.067-.286l-.002.004a.27.27 0 0 1 .227-.124l.033.002h.009c.092 0 .174.045.226.114l.001.001a.422.422 0 0 1 .088.259v.187h.524v-.215a.963.963 0 0 0-.069-.358l.002.006.002.006a.853.853 0 0 0-.177-.285zm3.142-.022a.916.916 0 0 0-.924-.164l.006-.002a.844.844 0 0 0-.481.438l-.002.005-.002.005a.92.92 0 0 0-.077.373v.02-.001V26.73c0 .134.028.262.08.378l-.002-.006a.775.775 0 0 0 .204.27l.001.001a.819.819 0 0 0 .273.169l.006.002a.91.91 0 0 0 .92-.173l-.001.001-.001.001a.83.83 0 0 0 .197-.266l.002-.005a.92.92 0 0 0 .077-.372v-.026.001-1.958a.958.958 0 0 0-.082-.387l.002.006.002.006a.883.883 0 0 0-.199-.283zm-.247 2.615.001.03a.348.348 0 0 1-.106.25.389.389 0 0 1-.5 0h.002a.345.345 0 0 1-.106-.248v-.002c0-.011 0-.022.002-.032v.001-1.941l-.001-.03c0-.098.041-.187.106-.25a.389.389 0 0 1 .5 0h-.002a.345.345 0 0 1 .106.248v.002l-.001.032v-.001 1.941zm4.374.867v-3.675h-.508l-.668 1.945h-.009l-.674-1.945h-.503v3.674h.525v-2.235h.01l.514 1.58h.262l.518-1.58h.01v2.235h.525zm2.982-3.416a.719.719 0 0 0-.292-.199l-.005-.002a1.134 1.134 0 0 0-.358-.057h-.803v3.675h.524v-1.435h.269l.043.001a.966.966 0 0 0 .436-.103l-.006.003a.789.789 0 0 0 .284-.275l.002-.003.002-.003a.885.885 0 0 0 .119-.315l.001-.005c.018-.113.028-.244.028-.378v-.041l.001-.06a2.1 2.1 0 0 0-.055-.479l.003.014a.789.789 0 0 0-.193-.338zm-.27 1.12a.442.442 0 0 1-.051.196l.001-.002.001-.003a.297.297 0 0 1-.131.127l-.002.001-.002.001a.511.511 0 0 1-.217.047h-.003l-.028-.001h-.238v-1.249h.27l.025-.001c.077 0 .149.017.214.048l-.003-.001a.303.303 0 0 1 .121.132l.001.002.001.002c.027.06.044.13.046.204v.245c0 .085.005.174 0 .252h-.005zm2.75-1.378h-.429l-.81 3.675h.524l.154-.789h.714l.154.789h.523l-.829-3.675zm-.483 2.384.258-1.332h.01l.256 1.332h-.523zm3.865-.171h-.01l-.79-2.213h-.503v3.675h.523v-2.21h.011l.8 2.209h.493v-3.674h-.523v2.213zm3.199-2.213-.421 1.461h-.011l-.421-1.461h-.554l.719 2.122v1.553h.524v-1.553l.719-2.121h-.555zM17.6 28.611h.252v.708h.171v-.708h.251v-.145H17.6v.146zm2.121-.146-.331.853h.182l.07-.194h.34l.073.194h.187l-.339-.853h-.182zm-.027.516.116-.316.116.316h-.232zm2.124.023h.197v.11a.32.32 0 0 1-.203.072H21.8a.218.218 0 0 1-.169-.081.353.353 0 0 1-.063-.201v-.002l.001-.02v.001c0-.19.082-.285.245-.285l.018-.001a.18.18 0 0 1 .174.135v.002l.169-.033c-.036-.166-.156-.251-.362-.251h-.011a.43.43 0 0 0-.287.11.411.411 0 0 0-.124.296l.001.034v-.003.02c0 .115.041.22.11.301l-.001-.001a.41.41 0 0 0 .296.126h.001l.027-.001h.013a.507.507 0 0 0 .348-.137v-.336h-.37v.144zm2.141-.539h-.173v.853h.597v-.145h-.425v-.708zm1.811 0h-.173v.853h.173v-.853zm1.769.57-.349-.57h-.167v.853h.16v-.557l.343.557h.172v-.853h-.158v.57zm1.601-.093h.425v-.145h-.425v-.187h.457v-.146h-.63v.853h.647v-.145h-.475v-.231zm3.88-.14h-.336v-.336h-.171v.853h.171v-.373h.336v.373h.172v-.853h-.172v.337zm1.609.14h.427v-.145h-.427v-.187h.459v-.146h-.629v.853h.646v-.145h-.475v-.231zm2.183.001c.149-.023.224-.102.224-.237l.001-.024a.206.206 0 0 0-.084-.166h-.002a.473.473 0 0 0-.215-.051h-.001l-.035.001h-.36v.853h.172v-.357h.048c.034 0 .066.007.094.02l-.001-.001a.197.197 0 0 1 .061.061v.001l.186.271h.205l-.104-.166a.619.619 0 0 0-.185-.202l-.002-.001-.002-.001zm-.173-.118h-.126v-.214h.135l.036-.001c.049 0 .097.008.141.023l-.003-.001c.023.021.037.05.037.083a.114.114 0 0 1-.045.09.464.464 0 0 1-.138.021h-.004l-.033-.001h.002zm1.82.117h.425v-.145h-.425v-.187h.459v-.146h-.631v.853h.647v-.145h-.475v-.231z"/>
    </symbol>
    <symbol id="icon-logo-ya" viewBox="0 0 57 32">
      <path d="m20.267 3.733 3.738 3.538-6.938-.004v17.167H35.2V17.87l3.733 3.534V3.733H20.266zm14.769 13.722L24.439 7.423h10.597v10.032zm-3.29 4.468h-11.81V10.378h.835v10.763h10.975v.781zm-9.021 4.797-.436.899-.436-.899h-.366l.637 1.198v.698h.331v-.698l.635-1.198h-.364zm.549 1.896.154-.442h.734l.155.442h.344l-.717-1.896h-.296l-.716 1.896h.342zm.52-1.493.275.786h-.549l.275-.787zm1.737.74a.426.426 0 0 0-.071.235v.006c0 .16.056.29.168.389s.263.149.45.149h.019a.785.785 0 0 0 .468-.155l-.002.001.107.126h.367l-.278-.33a.944.944 0 0 0 .165-.535l-.001-.041v.002h-.275v.009c0 .124-.029.24-.081.344l.002-.004-.366-.432.129-.094a.75.75 0 0 0 .193-.192l.002-.003.002-.003a.405.405 0 0 0 .06-.214V27.107a.388.388 0 0 0-.132-.292.477.477 0 0 0-.32-.123h-.019c-.153 0-.274.044-.364.13s-.135.203-.135.352c0 .061.014.123.043.189.03.065.082.144.155.237-.11.072-.203.159-.28.258l-.002.003zm.856.42a.478.478 0 0 1-.299.107h-.016a.31.31 0 0 1-.211-.083.287.287 0 0 1-.085-.203v-.01c0-.101.052-.192.156-.271l.041-.029.414.489zm-.34-.84c-.09-.11-.134-.202-.134-.275 0-.063.019-.116.055-.157a.182.182 0 0 1 .139-.063h.015c.052 0 .1.02.135.054a.17.17 0 0 1 .056.125V27.136c0 .07-.031.133-.08.176l-.041.032-.145.099zm3.086 1.03a.69.69 0 0 0 .224-.472v-.002h-.328c-.018.135-.059.232-.124.29s-.163.087-.292.087c-.141 0-.249-.054-.323-.162s-.11-.264-.11-.469v-.167c.002-.203.041-.355.117-.46a.385.385 0 0 1 .332-.156h-.001c.123 0 .217.03.28.091s.104.158.12.294h.328c-.021-.207-.095-.368-.222-.482s-.296-.171-.506-.171l-.028-.001a.716.716 0 0 0-.651.417l-.002.004-.002.005c-.06.133-.096.288-.096.451v.199c.003.174.035.327.098.46s.151.234.266.306c.11.067.244.107.386.107h.014-.001c.216 0 .389-.056.519-.169zm1.936-.266c.064-.141.097-.304.097-.49v-.125c0-.169-.036-.329-.102-.473l.003.007a.728.728 0 0 0-.271-.316l-.003-.002-.003-.002c-.119-.075-.256-.112-.411-.112s-.291.037-.411.113a.738.738 0 0 0-.275.319l-.002.005a1.115 1.115 0 0 0-.098.461v.136c.001.181.034.341.099.48a.755.755 0 0 0 .276.32l.003.002c.113.07.251.112.398.112h.013-.001.016a.753.753 0 0 0 .399-.114l-.003.002a.746.746 0 0 0 .274-.318l.002-.005zm-.353-1.072c.08.112.119.274.119.484v.099c0 .213-.039.376-.118.487a.386.386 0 0 1-.318.167h-.019.001-.014a.393.393 0 0 1-.323-.169l-.001-.001-.001-.001c-.081-.114-.121-.275-.121-.483v-.109c.002-.204.043-.362.122-.473a.39.39 0 0 1 .321-.168h.03c.133 0 .25.066.32.167l.001.001z"/>
    </symbol>
    <symbol id="icon-smartphone" viewBox="0 0 20 32">
      <path d="M17 0H3C1.346 0 0 1.346 0 3v26c0 1.654 1.346 3 3 3h14c1.654 0 3-1.346 3-3V3c0-1.654-1.346-3-3-3zM3 2h14a1 1 0 0 1 1 1v21H2V3a1 1 0 0 1 1-1zm14 28H3a1 1 0 0 1-1-1v-3h16v3a1 1 0 0 1-1 1z"/>
      <path d="M4.708 27.478a.887.887 0 0 1 .001 1.318l-.001.001-.001.001a1.044 1.044 0 0 1-1.417 0l.001.001.001.001a.887.887 0 0 1-.001-1.318l.001-.001.001-.001a1.044 1.044 0 0 1 1.418 0l-.001-.001-.001-.001z"/>
    </symbol>
    <symbol id="icon-twitter" viewBox="0 0 32 32">
      <path  d="M32 6.078c-1.1.493-2.376.857-3.713 1.028l-.068.007a6.587 6.587 0 0 0 2.859-3.533l.014-.046.013-.046a12.656 12.656 0 0 1-3.993 1.559l-.083.014-.084.014A6.558 6.558 0 0 0 15.6 9.557v.004c0 .52.043 1.021.152 1.496-5.454-.266-10.28-2.88-13.522-6.861a6.45 6.45 0 0 0-.902 3.31v.004a6.565 6.565 0 0 0 2.891 5.436l.023.015a6.422 6.422 0 0 1-3.026-.84l.032.017.033.017v.072a6.595 6.595 0 0 0 5.169 6.432l.087.016a6.235 6.235 0 0 1-1.645.215h-.075c-.419 0-.843-.024-1.242-.112.85 2.598 3.261 4.509 6.13 4.57a13.012 13.012 0 0 1-8.092 2.8h-.104c-.531 0-1.055-.034-1.569-.099l.061.006c2.826 1.846 6.287 2.944 10.004 2.944h.06c12.072 0 18.672-10 18.672-18.669 0-.288-.01-.57-.024-.848a13.327 13.327 0 0 0 3.229-3.309l.029-.046.03-.047z"/>
    </symbol>
    <symbol id="icon-letter" viewBox="0 0 43 32">
      <path d="M37.333 0h-32c-2.2 0-3.981 1.8-3.981 4l-.019 24c0 2.2 1.8 4 4 4h32c2.2 0 4-1.8 4-4V4c0-2.2-1.8-4-4-4zm-.8 8.501-14.139 8.837a2.02 2.02 0 0 1-2.129-.005l.009.005-14.141-8.84A1.7 1.7 0 1 1 7.94 5.621l-.006-.004 13.4 8.381 13.4-8.381a1.7 1.7 0 1 1 1.808 2.876l-.008.004z"/>
    </symbol>
    <symbol id="icon-phone" viewBox="0 0 32 32">
      <path d="m27.419 20.853-4.201-.48a3.28 3.28 0 0 0-2.713.941l-3.045 3.045c-4.718-2.435-8.467-6.185-10.835-10.764l-.065-.139L9.623 10.4a3.281 3.281 0 0 0 .94-2.729l.002.016-.48-4.169A3.314 3.314 0 0 0 6.798.592H3.933C2.063.587.509 2.142.623 4.009c.878 14.126 12.176 25.408 26.286 26.286 1.867.114 3.424-1.44 3.424-3.31v-2.878a3.279 3.279 0 0 0-2.897-3.256l-.015-.001z"/>
    </symbol>
    <symbol id="icon-man" viewBox="0 0 32 32">
      <path d="M16 16a8 8 0 0 0 0-16 8 8 0 0 0 0 16zm0 4c-5.339 0-16 2.68-16 8v2c0 1.099.901 2 2 2h28c1.099 0 2-.901 2-2v-2c0-5.32-10.661-8-16-8z"/>
    </symbol>
    <symbol id="icon-vector" viewBox="0 0 34 32">
      <path d="M30.34 3.556v24.887H3.793V3.556H30.34zm0-3.556H3.793C1.707 0 0 1.6 0 3.556v24.887c0 1.956 1.707 3.556 3.793 3.556H30.34c2.086 0 3.793-1.6 3.793-3.556V3.556C34.133 1.6 32.426 0 30.34 0z"/>
    </symbol>
    <symbol id="icon-Vector" viewBox="0 0 42 32">
      <path d="m6.262 15.206-.221-.211-.221.208-3.085 2.925.243.234 11.408 10.88.221-.211L38.863 5.892l-.243-.23-3.043-2.902-.221.211-20.97 19.987-8.125-7.75z"/>
    </symbol>
  </defs>
</svg>